<?xml version="1.0" standalone="no"?><!DOCTYPE svg PUBLIC "-//W3C//DTD SVG 1.1//EN" "http://www.w3.org/Graphics/SVG/1.1/DTD/svg11.dtd"><svg t="1578973195122" class="icon" viewBox="0 0 1024 1024" version="1.1" xmlns="http://www.w3.org/2000/svg" p-id="1906" data-spm-anchor-id="a313x.7781069.0.i12" xmlns:xlink="http://www.w3.org/1999/xlink" width="200" height="200"><defs><style type="text/css"></style></defs><path d="M988.892963 93.640762h-112.525472A130.55913 130.55913 0 0 0 750.473219 0.002276a130.55913 130.55913 0 0 0-125.95116 93.638486H35.10021A34.701991 34.701991 0 0 0 0 128.001422a34.701991 34.701991 0 0 0 35.10021 34.36066h589.36496A130.55913 130.55913 0 0 0 750.530108 256.000569a130.55913 130.55913 0 0 0 125.894271-93.638487h112.525472A34.701991 34.701991 0 0 0 1023.993173 128.001422a34.701991 34.701991 0 0 0-35.10021-34.36066z m-238.419744 93.638487a60.017378 60.017378 0 0 1-60.586263-59.277827c0-32.710893 27.192708-59.277827 60.586263-59.277827 33.336667 0 60.529374 26.566934 60.529374 59.277827 0 32.654005-27.192708 59.277827-60.529374 59.277827z m238.362855 264.759124A34.701991 34.701991 0 0 1 1023.993173 486.399033a34.701991 34.701991 0 0 1-35.10021 34.36066H399.528003A130.55913 130.55913 0 0 1 273.519954 614.39818a130.55913 130.55913 0 0 1-125.95116-93.638487H35.10021A34.701991 34.701991 0 0 1 0 486.399033a34.701991 34.701991 0 0 1 35.10021-34.36066h112.525472A130.55913 130.55913 0 0 1 273.576843 358.399886c59.903601 0 110.534374 39.70818 125.894272 93.638487h589.364959zM273.633731 545.67686c33.336667 0 60.529374-26.566934 60.529375-59.277827s-27.192708-59.277827-60.529375-59.277827c-33.393555 0-60.586263 26.566934-60.586262 59.277827s27.192708 59.277827 60.586262 59.277827z m715.31612 315.958782a34.701991 34.701991 0 0 1 35.100211 34.36066 34.701991 34.701991 0 0 1-35.100211 34.36066h-112.525472A130.55913 130.55913 0 0 1 750.473219 1023.995449a130.55913 130.55913 0 0 1-125.95116-93.638487H35.10021A34.701991 34.701991 0 0 1 0 895.996302a34.701991 34.701991 0 0 1 35.10021-34.36066h589.36496a130.55913 130.55913 0 0 1 126.008049-93.638486c59.903601 0 110.534374 39.70818 125.894272 93.638486h112.525472z m-238.419743 93.638487c33.336667 0 60.529374-26.566934 60.529374-59.277827s-27.192708-59.277827-60.529374-59.277827c-33.393555 0-60.586263 26.566934-60.586263 59.277827s27.192708 59.277827 60.586263 59.277827z" fill="#bfcbd9" p-id="1907" data-spm-anchor-id="a313x.7781069.0.i10" class="selected"></path></svg>