<?xml version="1.0" standalone="no"?><!DOCTYPE svg PUBLIC "-//W3C//DTD SVG 1.1//EN" "http://www.w3.org/Graphics/SVG/1.1/DTD/svg11.dtd"><svg t="1572831903516" class="icon" viewBox="0 0 1024 1024" version="1.1" xmlns="http://www.w3.org/2000/svg" p-id="2051" xmlns:xlink="http://www.w3.org/1999/xlink" width="200" height="200"><defs><style type="text/css"></style></defs><path d="M449.16 128.22c43.35 0 85.38 8.48 124.9 25.19 38.21 16.16 72.54 39.31 102.03 68.8 29.49 29.49 52.64 63.82 68.8 102.03 16.72 39.52 25.19 81.55 25.19 124.9 0 38.15-6.61 75.45-19.65 110.86-12.6 34.22-30.87 65.88-54.31 94.09l-18.34 22.07-21.92 18.48c-28.34 23.89-60.22 42.52-94.76 55.38-35.74 13.31-73.41 20.05-111.96 20.05-43.35 0-85.38-8.48-124.9-25.19-38.21-16.16-72.54-39.31-102.03-68.8-29.49-29.49-52.64-63.82-68.8-102.03-16.72-39.53-25.19-81.55-25.19-124.9s8.48-85.38 25.19-124.9c16.16-38.21 39.31-72.54 68.8-102.03 29.49-29.49 63.82-52.64 102.03-68.8 39.54-16.72 81.56-25.2 124.92-25.2m0-64c-212.59 0-384.93 172.34-384.93 384.93s172.34 384.93 384.93 384.93c94.47 0 180.99-34.03 247.97-90.5l191.33 191.33c6.24 6.24 14.42 9.36 22.6 9.36s16.36-3.12 22.6-9.36l3.21-3.21c12.48-12.48 12.48-32.72 0-45.2L745.36 695c55.41-66.68 88.73-152.37 88.73-245.85 0-212.59-172.34-384.93-384.93-384.93z" p-id="2052"></path><path d="M256.69 487.07h-64c0-78.51 30.58-152.33 86.09-207.85 55.52-55.52 129.33-86.09 207.85-86.09v64c-126.79 0-229.94 103.15-229.94 229.94z" p-id="2053"></path></svg>