<?xml version="1.0" standalone="no"?><!DOCTYPE svg PUBLIC "-//W3C//DTD SVG 1.1//EN" "http://www.w3.org/Graphics/SVG/1.1/DTD/svg11.dtd"><svg t="1596591684086" class="icon" viewBox="0 0 1024 1024" version="1.1" xmlns="http://www.w3.org/2000/svg" p-id="1369" xmlns:xlink="http://www.w3.org/1999/xlink" width="200" height="200"><defs><style type="text/css"></style></defs><path d="M177.7664 862.8224c-11.264 0-20.48-9.216-20.48-20.48v-675.84c0-11.264 9.216-20.48 20.48-20.48s20.48 9.216 20.48 20.48v675.84c0 11.264-9.216 20.48-20.48 20.48z" p-id="1370"></path><path d="M584.704 524.9024H177.7664c-11.264 0-20.48-9.216-20.48-20.48s9.216-20.48 20.48-20.48h406.9376c11.264 0 20.48 9.216 20.48 20.48s-9.0112 20.48-20.48 20.48zM448.9216 729.7024H177.7664c-11.264 0-20.48-9.216-20.48-20.48s9.216-20.48 20.48-20.48h271.1552c11.264 0 20.48 9.216 20.48 20.48s-9.0112 20.48-20.48 20.48zM853.6064 320.1024h-675.84c-11.264 0-20.48-9.216-20.48-20.48s9.216-20.48 20.48-20.48h675.84c11.264 0 20.48 9.216 20.48 20.48s-9.216 20.48-20.48 20.48z" p-id="1371"></path><path d="M853.6064 596.7872c-11.264 0-20.48-9.216-20.48-20.48V166.5024c0-11.264 9.216-20.48 20.48-20.48s20.48 9.216 20.48 20.48v409.8048c0 11.264-9.0112 20.48-20.48 20.48zM853.6064 862.8224c-11.264 0-20.48-9.216-20.48-20.48v-61.2352c0-11.264 9.216-20.48 20.48-20.48s20.48 9.216 20.48 20.48v61.2352c0 11.264-9.0112 20.48-20.48 20.48zM454.2464 320.1024h-143.36v-143.36h143.36v143.36z m-102.4-40.96h61.44v-61.44h-61.44v61.44zM720.4864 320.1024h-143.36v-143.36h143.36v143.36z m-102.4-40.96h61.44v-61.44h-61.44v61.44zM454.2464 524.9024h-143.36v-143.36h143.36v143.36z m-102.4-40.96h61.44v-61.44h-61.44v61.44zM687.104 862.8224c-7.3728 0-14.1312-2.8672-19.456-7.9872l-161.5872-161.5872a20.39808 20.39808 0 1 1 28.8768-28.8768l151.9616 151.9616 151.9616-151.9616a20.39808 20.39808 0 1 1 28.8768 28.8768l-161.5872 161.5872c-4.7104 5.12-11.6736 7.9872-19.0464 7.9872z" p-id="1372"></path><path d="M687.104 856.064c-11.264 0-20.48-9.216-20.48-20.48V504.4224c0-11.264 9.216-20.48 20.48-20.48s20.48 9.216 20.48 20.48V835.584c0 11.264-9.0112 20.48-20.48 20.48z" p-id="1373"></path></svg>