<?xml version="1.0" standalone="no"?><!DOCTYPE svg PUBLIC "-//W3C//DTD SVG 1.1//EN" "http://www.w3.org/Graphics/SVG/1.1/DTD/svg11.dtd"><svg t="1603712529556" class="icon" viewBox="0 0 1024 1024" version="1.1" xmlns="http://www.w3.org/2000/svg" p-id="5364" xmlns:xlink="http://www.w3.org/1999/xlink" width="200" height="200"><defs><style type="text/css"></style></defs><path d="M481.83507194 626.45914369v257.40738611c0 47.42597023-38.37649182 85.80246203-85.80246203 85.80246203H138.62522381c-47.42597023 0-85.80246203-38.37649182-85.80246204-85.80246203V626.45914369c0-47.42597023 38.37649182-85.80246203 85.80246204-85.80246203h257.4073861c47.42597023 0 85.80246203 38.54407474 85.80246203 85.80246203zM882.19070045 540.65668166c47.42597023 0 85.80246203 38.37649182 85.80246206 85.80246203v257.40738611c0 47.42597023-38.37649182 85.80246203-85.80246206 85.80246203H624.78331437c-47.42597023 0-85.80246203-38.37649182-85.80246205-85.80246203V626.45914369c0-47.42597023 38.37649182-85.80246203 85.80246205-85.80246203h257.40738608zM537.8077718 215.04304155l161.71753097-161.717531c29.82976221-29.82976221 78.09364711-29.82976221 107.75582636 0l161.71753098 161.717531c29.82976221 29.82976221 29.82976221 78.09364711 0 107.75582635l-161.71753098 161.71753099c-29.82976221 29.82976221-78.09364711 29.82976221-107.75582636 0l-161.71753097-161.71753099c-29.66217926-29.66217926-29.66217926-77.92606415 0-107.75582635zM396.03260991 54.49859109c47.42597023 0 85.80246203 38.37649182 85.80246203 85.80246204v257.4073861c0 47.42597023-38.37649182 85.80246203-85.80246203 85.80246206H138.62522381c-47.42597023 0-85.80246203-38.37649182-85.80246204-85.80246206V140.30105313c0-47.42597023 38.37649182-85.80246203 85.80246204-85.80246204h257.4073861z" p-id="5365"></path></svg>