<?xml version="1.0" standalone="no"?><!DOCTYPE svg PUBLIC "-//W3C//DTD SVG 1.1//EN" "http://www.w3.org/Graphics/SVG/1.1/DTD/svg11.dtd"><svg t="1576571851948" class="icon" viewBox="0 0 1025 1024" version="1.1" xmlns="http://www.w3.org/2000/svg" p-id="15805" xmlns:xlink="http://www.w3.org/1999/xlink" width="200.1953125" height="200"><defs><style type="text/css"></style></defs><path d="M1006.933333 1024H17.066667c-10.24 0-17.066667-6.826667-17.066667-17.066667V17.066667C0 10.24 3.413333 3.413333 10.24 0c6.826667 0 13.653333 0 20.48 3.413333l989.866667 989.866667c3.413333 3.413333 6.826667 13.653333 3.413333 17.066667-3.413333 10.24-10.24 13.653333-17.066667 13.653333zM34.133333 989.866667h931.84L34.133333 58.026667V989.866667z" fill="" p-id="15806"></path><path d="M563.2 853.333333h-375.466667c-10.24 0-17.066667-6.826667-17.066666-17.066666v-375.466667c0-6.826667 3.413333-13.653333 10.24-17.066667 6.826667-3.413333 13.653333 0 17.066666 3.413334l375.466667 375.466666c3.413333 3.413333 6.826667 13.653333 3.413333 17.066667 0 10.24-6.826667 13.653333-13.653333 13.653333zM204.8 819.2h317.44L204.8 501.76V819.2zM153.6 1024c-10.24 0-17.066667-6.826667-17.066667-17.066667v-68.266666c0-10.24 6.826667-17.066667 17.066667-17.066667s17.066667 6.826667 17.066667 17.066667v68.266666c0 10.24-6.826667 17.066667-17.066667 17.066667zM290.133333 1024c-10.24 0-17.066667-6.826667-17.066666-17.066667v-102.4c0-10.24 6.826667-17.066667 17.066666-17.066666s17.066667 6.826667 17.066667 17.066666v102.4c0 10.24-6.826667 17.066667-17.066667 17.066667zM426.666667 1024c-10.24 0-17.066667-6.826667-17.066667-17.066667v-68.266666c0-10.24 6.826667-17.066667 17.066667-17.066667s17.066667 6.826667 17.066666 17.066667v68.266666c0 10.24-6.826667 17.066667-17.066666 17.066667zM563.2 1024c-10.24 0-17.066667-6.826667-17.066667-17.066667v-102.4c0-10.24 6.826667-17.066667 17.066667-17.066666s17.066667 6.826667 17.066667 17.066666v102.4c0 10.24-6.826667 17.066667-17.066667 17.066667zM699.733333 1024c-10.24 0-17.066667-6.826667-17.066666-17.066667v-68.266666c0-10.24 6.826667-17.066667 17.066666-17.066667s17.066667 6.826667 17.066667 17.066667v68.266666c0 10.24-6.826667 17.066667-17.066667 17.066667zM836.266667 1024c-10.24 0-17.066667-6.826667-17.066667-17.066667v-102.4c0-10.24 6.826667-17.066667 17.066667-17.066666s17.066667 6.826667 17.066666 17.066666v102.4c0 10.24-6.826667 17.066667-17.066666 17.066667z" fill="" p-id="15807"></path></svg>