<?xml version="1.0" standalone="no"?><!DOCTYPE svg PUBLIC "-//W3C//DTD SVG 1.1//EN" "http://www.w3.org/Graphics/SVG/1.1/DTD/svg11.dtd"><svg t="1576571336894" class="icon" viewBox="0 0 1024 1024" version="1.1" xmlns="http://www.w3.org/2000/svg" p-id="3280" xmlns:xlink="http://www.w3.org/1999/xlink" width="200" height="200"><defs><style type="text/css"></style></defs><path d="M1002.666667 798.506667H269.653333a21.333333 21.333333 0 0 1-21.333333-21.333334V21.333333a21.333333 21.333333 0 0 1 21.333333-21.333333H1002.666667a21.333333 21.333333 0 0 1 21.333333 21.333333v755.84a21.333333 21.333333 0 0 1-21.333333 21.333334z m-711.68-42.666667H981.333333V42.666667H290.986667v713.173333z" p-id="3281"></path><path d="M1002.666667 1024H179.904C80.704 1024 0 963.818667 0 889.834667c0-73.898667 80.704-133.994667 179.904-133.994667H1002.666667a21.333333 21.333333 0 0 1 21.333333 21.333333V1002.666667a21.333333 21.333333 0 0 1-21.333333 21.333333zM179.904 798.506667C105.514667 798.506667 42.666667 840.341333 42.666667 889.834667 42.666667 939.434667 105.514667 981.333333 179.904 981.333333H981.333333v-182.826666H179.904z" p-id="3282"></path><path d="M21.333333 911.168a21.333333 21.333333 0 0 1-21.333333-21.333333V133.973333C0 60.096 80.704 0 179.904 0h89.749333a21.333333 21.333333 0 0 1 0 42.666667H179.904C105.514667 42.666667 42.666667 84.48 42.666667 133.973333v755.861334a21.333333 21.333333 0 0 1-21.333334 21.333333zM814.165333 593.664a21.269333 21.269333 0 0 1-13.781333-5.056l-166.784-141.44-161.493333 141.226667a21.333333 21.333333 0 0 1-35.370667-16.064V35.434667a21.333333 21.333333 0 0 1 42.666667 0v489.898666l139.946666-122.389333c7.957333-6.933333 19.797333-7.04 27.84-0.213333l145.664 123.541333V35.434667a21.333333 21.333333 0 1 1 42.666667 0v536.896a21.333333 21.333333 0 0 1-21.354667 21.333333z" p-id="3283"></path></svg>