<?xml version="1.0" standalone="no"?><!DOCTYPE svg PUBLIC "-//W3C//DTD SVG 1.1//EN" "http://www.w3.org/Graphics/SVG/1.1/DTD/svg11.dtd"><svg t="1588142826344" class="icon" viewBox="0 0 1024 1024" version="1.1" xmlns="http://www.w3.org/2000/svg" p-id="1294" xmlns:xlink="http://www.w3.org/1999/xlink" width="200" height="200"><defs><style type="text/css"></style></defs><path d="M510.532067 377.342114c17.318434 17.856693 35.576263 32.577976 54.763255 44.169989 22.11467-12.391215 41.102117-27.112498 56.961316-44.169989L510.532067 377.342114z" p-id="1295" fill="#409EFF"></path><path d="M512.688173 153.054885c-195.544605 0-354.064968 158.520363-354.064968 354.064968s158.520363 354.064968 354.064968 354.064968 354.065991-158.520363 354.065991-354.064968S708.231755 153.054885 512.688173 153.054885zM365.629863 317.382511c18.653849 19.986193 38.904055 42.905182 60.758806 68.753897-15.189957 11.192923-30.379914 22.784936-45.568848 34.776038-17.588587-23.715121-36.109406-47.698349-55.562457-71.951729L365.629863 317.382511zM366.430088 707.118909l-28.780487-39.173185c7.194866-6.928806 10.79281-18.11866 10.79281-33.577746l0-133.509736-33.976836 0 0-51.964512 87.540775 0 0 161.090908c12.258185-9.859555 22.914896-19.587104 31.978319-29.1806 0.26606 20.520359 1.998517 41.705867 5.196349 63.556525C408.530952 667.545612 384.283712 688.461991 366.430088 707.118909zM701.402209 645.559878l-105.528452 0 0 65.556065-55.962569 0 0-65.556065-96.734158 0 0-44.769646 96.734158 0 0-28.780487-87.940888 0 0-44.769646 87.940888 0 0-26.381857 55.962569 0 0 26.381857 96.734158 0 0 44.769646-96.734158 0 0 28.780487 105.528452 0L701.402209 645.559878zM689.411107 511.25094c-53.963029-7.460925-96.069009-18.11866-126.314871-31.978319-34.246989 15.589047-72.350818 26.916023-114.322745 33.976836-6.395664-15.189957-15.059997-30.909987-25.982768-47.168276 31.978319-4.52813 61.024865-11.192923 87.140663-19.986193-17.322527-13.990642-34.110889-31.3101-50.366108-51.964512l30.978549-16.788361-44.969191 0 0-44.369533 247.832482 0 0 43.570331c-20.786419 26.916023-44.969191 50.100048-72.550363 69.553099 26.511817 7.995091 56.428174 13.060457 89.738837 15.189957C702.068382 480.471936 695.006546 497.130338 689.411107 511.25094z" p-id="1296" fill="#409EFF"></path></svg>