<?xml version="1.0" standalone="no"?><!DOCTYPE svg PUBLIC "-//W3C//DTD SVG 1.1//EN" "http://www.w3.org/Graphics/SVG/1.1/DTD/svg11.dtd"><svg t="1562900119981" class="icon" viewBox="0 0 1024 1024" version="1.1" xmlns="http://www.w3.org/2000/svg" p-id="3318" xmlns:xlink="http://www.w3.org/1999/xlink" width="200" height="200"><defs><style type="text/css"></style></defs><path d="M853.498 32l-680.881 0c-65.551 0-124.758 54.978-124.758 120.529l0 718.942c0 63.436 52.864 120.529 124.758 120.529l680.881 0c67.665 0 124.758-52.864 124.758-120.529l0-718.942c0-59.207-69.78-120.529-124.758-120.529l0 0zM916.934 871.471c0 33.832-27.489 59.207-61.322 59.207l-674.538 0c-33.833 0-61.322-27.489-61.322-59.207l0-712.599c0-33.833 27.489-61.322 61.322-61.322l116.3 0 0 420.793 124.758-120.529 124.758 120.529 0-420.793 310.837 0c33.832 0 61.322 27.489 61.322 59.207l0 714.713-2.115 0z" p-id="3319"></path></svg>